<?xml version="1.0" standalone="no"?>
<!DOCTYPE svg PUBLIC "-//W3C//DTD SVG 20010904//EN"
 "http://www.w3.org/TR/2001/REC-SVG-20010904/DTD/svg10.dtd">
<svg version="1.0" xmlns="http://www.w3.org/2000/svg"
 width="512.000000pt" height="512.000000pt" viewBox="0 0 512.000000 512.000000"
 preserveAspectRatio="xMidYMid meet">
<metadata>
Created by potrace 1.11, written by Peter Selinger 2001-2013
</metadata>
<g transform="translate(0.000000,512.000000) scale(0.100000,-0.100000)"
fill="#000000" stroke="none">
<path d="M3690 4485 c-201 -29 -346 -73 -505 -151 -303 -148 -506 -387 -587
-692 -31 -118 -36 -329 -10 -452 62 -300 260 -542 600 -734 117 -67 237 -119
437 -193 339 -125 492 -221 562 -355 25 -48 28 -62 28 -158 0 -123 -16 -169
-86 -245 -52 -56 -107 -89 -200 -121 -266 -90 -740 -30 -1133 142 -55 24 -100
43 -101 41 -1 -1 -40 -157 -87 -345 l-86 -344 65 -29 c211 -94 477 -160 772
-190 142 -15 457 -6 595 15 563 89 944 371 1079 801 39 123 50 228 44 389 -11
283 -94 475 -286 666 -164 162 -336 263 -696 405 -367 146 -491 211 -577 303
-66 71 -81 104 -86 200 -4 77 -2 87 27 147 50 101 141 167 288 207 65 17 105
21 243 21 243 -1 456 -43 665 -133 50 -21 91 -35 92 -32 4 13 172 617 178 643
6 25 2 28 -77 61 -159 67 -330 109 -538 133 -151 18 -499 18 -620 0z"/>
<path d="M1120 3198 c0 -1036 -3 -1259 -15 -1338 -43 -286 -151 -429 -368
-487 -125 -34 -406 -19 -579 32 -36 11 -48 11 -48 2 0 -7 -20 -158 -45 -337
-25 -178 -41 -328 -37 -332 12 -12 155 -45 277 -65 155 -25 540 -24 678 1 267
48 449 134 609 285 156 148 250 320 312 574 55 223 56 253 56 1634 l0 1273
-420 0 -420 0 0 -1242z"/>
</g>
</svg>
